<?xml version="1.0" encoding="UTF-8" standalone="no"?>
<svg
   xmlns:dc="http://purl.org/dc/elements/1.1/"
   xmlns:cc="http://creativecommons.org/ns#"
   xmlns:rdf="http://www.w3.org/1999/02/22-rdf-syntax-ns#"
   xmlns:svg="http://www.w3.org/2000/svg"
   xmlns="http://www.w3.org/2000/svg"
   xmlns:xlink="http://www.w3.org/1999/xlink"
   xmlns:sodipodi="http://sodipodi.sourceforge.net/DTD/sodipodi-0.dtd"
   xmlns:inkscape="http://www.inkscape.org/namespaces/inkscape"
   id="svg5121"
   version="1.1"
   viewBox="0 0 16.933333 16.933334"
   height="64"
   width="64"
   sodipodi:docname="com.github.jeremyvaartjes.subminder.svg"
   inkscape:version="0.92.3 (2405546, 2018-03-11)"
   inkscape:export-filename="/home/jeremy/Documents/subminder/subminder.png"
   inkscape:export-xdpi="96"
   inkscape:export-ydpi="96">
  <sodipodi:namedview
     pagecolor="#ffffff"
     bordercolor="#666666"
     borderopacity="1"
     objecttolerance="10"
     gridtolerance="10"
     guidetolerance="10"
     inkscape:pageopacity="0"
     inkscape:pageshadow="2"
     inkscape:window-width="1280"
     inkscape:window-height="1377"
     id="namedview65"
     showgrid="false"
     inkscape:zoom="3.6875"
     inkscape:cx="-26.296647"
     inkscape:cy="68.328873"
     inkscape:window-x="0"
     inkscape:window-y="30"
     inkscape:window-maximized="0"
     inkscape:current-layer="svg5121" />
  <defs
     id="defs5115">
    <radialGradient
       r="62.769119"
       fy="185.29727"
       fx="99.189415"
       cy="185.29727"
       cx="99.189415"
       gradientTransform="matrix(0.3823536,7.5555777e-8,-1.8372241e-8,0.1115198,-5.9254271,36.335849)"
       gradientUnits="userSpaceOnUse"
       id="radialGradient3300-8-9"
       xlink:href="#linearGradient3820-7-2" />
    <linearGradient
       id="linearGradient3820-7-2">
      <stop
         offset="0"
         style="stop-color:#000000;stop-opacity:1"
         id="stop3822-2-6" />
      <stop
         offset="1"
         style="stop-color:#000000;stop-opacity:0"
         id="stop3824-1-2" />
    </linearGradient>
    <radialGradient
       r="62.769119"
       fy="185.29727"
       fx="99.189415"
       cy="185.29727"
       cx="99.189415"
       gradientTransform="matrix(0.2549024,5.3967361e-8,-1.2248161e-8,0.07965545,6.7163816,44.240666)"
       gradientUnits="userSpaceOnUse"
       id="radialGradient4192-6-6"
       xlink:href="#linearGradient3820-7-2" />
    <linearGradient
       gradientTransform="matrix(0.50022452,0,0,0.37396592,-1011.3962,-916.63665)"
       gradientUnits="userSpaceOnUse"
       xlink:href="#linearGradient4382"
       id="linearGradient11527-6-5"
       y2="3241.9966"
       x2="2035.2928"
       y1="3201.9197"
       x1="2035.2928" />
    <linearGradient
       id="linearGradient4382">
      <stop
         offset="0"
         style="stop-color:#64baff;stop-opacity:1"
         id="stop4384" />
      <stop
         offset="1"
         style="stop-color:#3689e6;stop-opacity:1"
         id="stop4386" />
    </linearGradient>
    <linearGradient
       y2="33.390285"
       x2="26.434902"
       y1="27.305695"
       x1="30.298615"
       gradientTransform="matrix(0.58178222,0,0,0.58915343,-5.3833492,267.39018)"
       gradientUnits="userSpaceOnUse"
       id="linearGradient4273-1-6-8-5-8"
       xlink:href="#linearGradient1541" />
    <linearGradient
       id="linearGradient1541">
      <stop
         offset="0"
         style="stop-color:#ffffff;stop-opacity:1"
         id="stop1533" />
      <stop
         offset="0.00094838"
         style="stop-color:#ffffff;stop-opacity:0.23529412"
         id="stop1535" />
      <stop
         offset="0.53919154"
         style="stop-color:#ffffff;stop-opacity:0.15686275"
         id="stop1537" />
      <stop
         offset="1"
         style="stop-color:#ffffff;stop-opacity:0.39215687"
         id="stop1539" />
    </linearGradient>
    <linearGradient
       xlink:href="#linearGradient1228"
       id="linearGradient1218-7"
       gradientUnits="userSpaceOnUse"
       gradientTransform="matrix(0.67973646,0,0,0.67987751,13.763082,268.06379)"
       x1="-6.3880167"
       y1="22.76745"
       x2="-6.3880167"
       y2="39.523407" />
    <linearGradient
       id="linearGradient1228">
      <stop
         id="stop1220"
         style="stop-color:#ffffff;stop-opacity:1"
         offset="0" />
      <stop
         id="stop1222"
         style="stop-color:#ffffff;stop-opacity:0.23529412"
         offset="0.49999997" />
      <stop
         id="stop1224"
         style="stop-color:#ffffff;stop-opacity:0.15686275"
         offset="0.75" />
      <stop
         id="stop1226"
         style="stop-color:#ffffff;stop-opacity:0.39215687"
         offset="1" />
    </linearGradient>
    <linearGradient
       xlink:href="#linearGradient1212"
       id="linearGradient1218-9-9"
       gradientUnits="userSpaceOnUse"
       gradientTransform="matrix(0.40835962,0,0,0.40796755,11.654701,276.53254)"
       x1="-7.4708142"
       y1="39.792725"
       x2="-7.4708142"
       y2="22.619598" />
    <linearGradient
       id="linearGradient1212">
      <stop
         offset="0"
         style="stop-color:#ffffff;stop-opacity:1"
         id="stop1204" />
      <stop
         offset="0.42921802"
         style="stop-color:#ffffff;stop-opacity:0.23529412"
         id="stop1206" />
      <stop
         offset="0.75"
         style="stop-color:#ffffff;stop-opacity:0.15686275"
         id="stop1208" />
      <stop
         offset="1"
         style="stop-color:#ffffff;stop-opacity:0.39215687"
         id="stop1210" />
    </linearGradient>
    <radialGradient
       r="62.769119"
       fy="185.29727"
       fx="99.189415"
       cy="185.29727"
       cx="99.189415"
       gradientTransform="matrix(0.3823536,7.5555777e-8,-1.8372241e-8,0.1115198,-5.9254271,36.335849)"
       gradientUnits="userSpaceOnUse"
       id="radialGradient3300-8"
       xlink:href="#linearGradient3820-7-2" />
    <radialGradient
       r="62.769119"
       fy="185.29727"
       fx="99.189415"
       cy="185.29727"
       cx="99.189415"
       gradientTransform="matrix(0.2549024,5.3967361e-8,-1.2248161e-8,0.07965545,6.7163816,44.240666)"
       gradientUnits="userSpaceOnUse"
       id="radialGradient4192-6"
       xlink:href="#linearGradient3820-7-2" />
    <radialGradient
       gradientTransform="matrix(0,1.7004673,-1.7988913,-4.7802167e-8,23.696405,277.17353)"
       gradientUnits="userSpaceOnUse"
       xlink:href="#linearGradient2867-449-88-871-390-598-476-591-434-148-57-177-8-3-3-6-4-8-8-8-5"
       id="radialGradient3092"
       fy="8.4497671"
       fx="0.96534902"
       r="19.99999"
       cy="8.4497671"
       cx="0.96534902" />
    <linearGradient
       id="linearGradient2867-449-88-871-390-598-476-591-434-148-57-177-8-3-3-6-4-8-8-8-5">
      <stop
         offset="0"
         style="stop-color:#f8e900;stop-opacity:1"
         id="stop3750-1-0-7-6-6-1-3-9-3" />
      <stop
         offset="0.26238"
         style="stop-color:#f6ad00;stop-opacity:1"
         id="stop3752-3-7-4-0-32-8-923-0-7" />
      <stop
         offset="0.704952"
         style="stop-color:#f59c00;stop-opacity:1"
         id="stop3754-1-8-5-2-7-6-7-1-9" />
      <stop
         offset="1"
         style="stop-color:#444c5c;stop-opacity:1"
         id="stop3756-1-6-2-6-6-1-96-6-0" />
    </linearGradient>
    <linearGradient
       xlink:href="#linearGradient4011-8"
       id="linearGradient3540"
       gradientUnits="userSpaceOnUse"
       gradientTransform="matrix(0.26690183,0,0,0.26690183,-10.649646,282.42892)"
       x1="71.204407"
       y1="6.2375584"
       x2="71.204407"
       y2="44.340794" />
    <linearGradient
       id="linearGradient4011-8">
      <stop
         offset="0"
         style="stop-color:#ffffff;stop-opacity:1"
         id="stop4013-9" />
      <stop
         offset="0.507761"
         style="stop-color:#ffffff;stop-opacity:0.23529412"
         id="stop4015-2" />
      <stop
         offset="0.83456558"
         style="stop-color:#ffffff;stop-opacity:0.15686275"
         id="stop4017-28" />
      <stop
         offset="1"
         style="stop-color:#ffffff;stop-opacity:0.39215687"
         id="stop4019-23" />
    </linearGradient>
  </defs>
  <metadata
     id="metadata5118">
    <rdf:RDF>
      <cc:Work
         rdf:about="">
        <dc:format>image/svg+xml</dc:format>
        <dc:type
           rdf:resource="http://purl.org/dc/dcmitype/StillImage" />
        <dc:title></dc:title>
      </cc:Work>
    </rdf:RDF>
  </metadata>
  <g
     transform="translate(0,-280.06665)"
     id="layer1">
    <g
       style="stroke-width:1.40587306"
       transform="matrix(0.24988371,0,0,0.25198263,0.47486758,280.34347)"
       id="g4198-4-0">
      <path
         style="opacity:0.2;fill:url(#radialGradient3300-8-9);fill-opacity:1;stroke:none;stroke-width:1.40587306"
         id="path3818-0-6-7"
         d="m 55.999998,57.0017 a 24,6.9985714 0 1 1 -47.9999991,0 24,6.9985714 0 1 1 47.9999991,0 z" />
      <path
         d="m 47.999998,59.0017 a 16,4.9988822 0 1 1 -31.999999,0 16,4.9988822 0 1 1 31.999999,0 z"
         id="path4190-2-0"
         style="opacity:0.4;fill:url(#radialGradient4192-6-6);fill-opacity:1;stroke:none;stroke-width:1.40587306" />
    </g>
    <path
       style="color:#000000;display:inline;overflow:visible;visibility:visible;opacity:0.98999999;fill:url(#linearGradient11527-6-5);fill-opacity:1;fill-rule:nonzero;stroke:none;stroke-width:0.3527773;marker:none;enable-background:accumulate"
       d="m 9.0003136,280.77219 v 1.94583 c -0.2383133,-0.003 -0.4934528,-0.004 -0.529166,-0.004 -3.6010309,0 -6.5263758,2.92529 -6.5263758,6.52637 0,3.60106 2.9253449,6.52636 6.5263758,6.52636 3.5415094,0 6.4229244,-2.83108 6.5174144,-6.35 h -3.174989 c -0.09244,1.76683 -1.55278,3.17499 -3.3424254,3.17499 -1.8491779,0 -3.3513818,-1.50215 -3.3513818,-3.35135 0,-1.84922 1.5022039,-3.35136 3.3513818,-3.35136 0.035723,0 0.2908273,0.003 0.529166,0.004 v 1.93478 l 5.4790714,-3.52771 z"
       id="path2555-7-8-5-0-9" />
    <path
       id="path4271-3-1-2-9-1"
       d="m 9.3516792,283.24174 v -1.82988 l 4.4869208,2.88821 -4.4869208,2.8814 v -1.82307"
       style="color:#000000;clip-rule:nonzero;display:inline;overflow:visible;visibility:visible;opacity:0.5;isolation:auto;mix-blend-mode:normal;color-interpolation:sRGB;color-interpolation-filters:linearRGB;solid-color:#000000;solid-opacity:1;fill:none;fill-opacity:1;fill-rule:nonzero;stroke:url(#linearGradient4273-1-6-8-5-8);stroke-width:0.34995502;stroke-linecap:butt;stroke-linejoin:miter;stroke-miterlimit:4;stroke-dasharray:none;stroke-dashoffset:0;stroke-opacity:1;marker:none;color-rendering:auto;image-rendering:auto;shape-rendering:auto;text-rendering:auto;enable-background:accumulate" />
    <path
       style="opacity:0.5;vector-effect:none;fill:none;fill-opacity:1;stroke:url(#linearGradient1218-7);stroke-width:0.34995502;stroke-linecap:butt;stroke-linejoin:miter;stroke-miterlimit:4;stroke-dasharray:none;stroke-dashoffset:0;stroke-opacity:1;marker:none"
       id="path1187-5"
       d="m 14.588272,290.08431 a 6.1749139,6.1744637 0 0 1 -6.9108772,5.27783 6.1749139,6.1744637 0 0 1 -5.3359703,-6.86585 6.1749139,6.1744637 0 0 1 6.8213376,-5.39301" />
    <path
       id="path1187-2-5"
       style="opacity:0.5;vector-effect:none;fill:none;fill-opacity:1;stroke:url(#linearGradient1218-9-9);stroke-width:0.34995508;stroke-linecap:butt;stroke-linejoin:miter;stroke-miterlimit:4;stroke-dasharray:none;stroke-dashoffset:0;stroke-opacity:1;marker:none"
       d="M 14.774405,289.76812 H 12.13494 c -0.316057,2.20687 -2.4485933,3.47191 -4.3518695,3.11056 -2.0028105,-0.38004 -3.3231506,-2.30326 -2.9565077,-4.30614 0.3666437,-2.00303 2.2828637,-3.33498 4.2908003,-2.98289" />
    <path
       style="color:#000000;display:inline;overflow:visible;visibility:visible;opacity:0.5;vector-effect:none;fill:none;fill-opacity:1;fill-rule:nonzero;stroke:#002e99;stroke-width:0.3527773;stroke-linecap:round;stroke-linejoin:round;stroke-miterlimit:4;stroke-dasharray:none;stroke-dashoffset:0;stroke-opacity:1;marker:none;enable-background:accumulate"
       d="m 9.0003136,280.77219 v 1.94583 c -0.2383133,-0.003 -0.4934528,-0.004 -0.529166,-0.004 -3.6010309,0 -6.5263758,2.92529 -6.5263758,6.52637 0,3.60106 2.9253449,6.52636 6.5263758,6.52636 3.5415094,0 6.4229244,-2.83108 6.5174144,-6.35 h -3.174989 c -0.09244,1.76683 -1.55278,3.17499 -3.3424254,3.17499 -1.8491779,0 -3.3513818,-1.50215 -3.3513818,-3.35135 0,-1.84922 1.5022039,-3.35136 3.3513818,-3.35136 0.035723,0 0.2908273,0.003 0.529166,0.004 v 1.93478 l 5.4790714,-3.52771 z"
       id="path2555-7-8-5-0-9-9" />
    <path
       d="m 8.4961641,284.00598 c -2.8641584,0 -5.1908988,2.32672 -5.1908988,5.19091 0,2.86415 2.3267404,5.19089 5.1908988,5.19089 2.8641569,0 5.1909039,-2.32674 5.1909009,-5.19089 0,-2.86419 -2.326744,-5.19091 -5.1909009,-5.19091 z"
       id="path2555-3"
       style="color:#000000;display:inline;overflow:visible;visibility:visible;fill:url(#radialGradient3092);fill-opacity:1;fill-rule:nonzero;stroke:none;stroke-width:0.25321445;marker:none;enable-background:accumulate"
       inkscape:connector-curvature="0" />
    <path
       d="m 13.433848,289.19671 c 0,2.72709 -2.210841,4.93788 -4.9376217,4.93788 -2.7270327,0 -4.9377469,-2.21082 -4.9377469,-4.93788 0,-2.727 2.2107142,-4.93752 4.9377469,-4.93752 2.7267807,0 4.9376217,2.21052 4.9376217,4.93752 z"
       id="path8655-4"
       style="color:#000000;display:inline;overflow:visible;visibility:visible;opacity:0.3;fill:none;stroke:url(#linearGradient3540);stroke-width:0.25321445;stroke-linecap:round;stroke-linejoin:round;stroke-miterlimit:4;stroke-dasharray:none;stroke-dashoffset:0;stroke-opacity:1;marker:none;enable-background:accumulate"
       inkscape:connector-curvature="0" />
    <path
       d="m 8.4961641,284.00598 c -2.8641584,0 -5.1908988,2.32672 -5.1908988,5.19091 0,2.86415 2.3267404,5.19089 5.1908988,5.19089 2.8641569,0 5.1909039,-2.32674 5.1909009,-5.19089 0,-2.86419 -2.326744,-5.19091 -5.1909009,-5.19091 z"
       id="path2555-6-0"
       style="color:#000000;clip-rule:nonzero;display:inline;overflow:visible;visibility:visible;opacity:0.5;isolation:auto;mix-blend-mode:normal;color-interpolation:sRGB;color-interpolation-filters:linearRGB;solid-color:#000000;solid-opacity:1;fill:none;fill-opacity:1;fill-rule:nonzero;stroke:#e24e12;stroke-width:0.25321445;stroke-linecap:round;stroke-linejoin:round;stroke-miterlimit:4;stroke-dasharray:none;stroke-dashoffset:0;stroke-opacity:1;marker:none;color-rendering:auto;image-rendering:auto;shape-rendering:auto;text-rendering:auto;enable-background:accumulate"
       inkscape:connector-curvature="0" />
    <g
       transform="matrix(1.089396,0,0,1.089396,18.000226,-27.555302)"
       id="text876"
       style="font-style:normal;font-weight:normal;font-size:10.58333302px;line-height:1.25;font-family:sans-serif;letter-spacing:0px;word-spacing:0px;fill:#445365;fill-opacity:1;stroke:none;stroke-width:0.26458332"
       aria-label="$">
      <path
         id="path880"
         style="font-size:8.46666622px;fill:#445365;fill-opacity:1;stroke-width:0.26458332"
         d="m -8.9143321,293.58639 q -1.7611329,-0.0744 -2.0505209,-1.48415 l 0.7028,-0.15296 q 0.103353,0.49196 0.4299476,0.74 0.3307291,0.24805 0.9177733,0.28526 v -2.05052 q -0.7317382,-0.18191 -1.012858,-0.3266 -0.2769859,-0.14469 -0.4506189,-0.33073 -0.169498,-0.19017 -0.248046,-0.40514 -0.07441,-0.21498 -0.07441,-0.51677 0,-0.64078 0.46302,-1.00045 0.4671553,-0.3638 1.3229169,-0.40101 v -0.54157 h 0.5126302 v 0.54157 q 0.7730794,0.0372 1.1947591,0.3514 0.4216796,0.31006 0.5953124,0.97152 l -0.7193359,0.13642 q -0.082682,-0.38861 -0.3348632,-0.60358 -0.252181,-0.21911 -0.7358724,-0.26458 v 1.83968 q 0.7400065,0.17363 1.0500651,0.31833 0.3141927,0.14469 0.4960937,0.32659 0.181901,0.1819 0.2769857,0.42995 0.095085,0.24804 0.095085,0.58291 0,0.68213 -0.5002278,1.09554 -0.5002279,0.41341 -1.4180013,0.45889 v 0.66972 h -0.5126302 z m 1.7197916,-1.54616 q 0,-0.26872 -0.107487,-0.44235 -0.1074869,-0.17364 -0.3100585,-0.28526 -0.2025716,-0.11575 -0.7896159,-0.26872 v 1.93477 q 0.5829101,-0.0372 0.8929687,-0.27699 0.3141927,-0.23977 0.3141927,-0.66145 z m -2.7946613,-2.70371 q 0,0.24391 0.1033529,0.41341 0.1033528,0.1695 0.3059244,0.28525 0.2067057,0.11576 0.6655924,0.23151 v -1.74046 q -1.0748697,0.0579 -1.0748697,0.81029 z" />
    </g>
    <g
       transform="matrix(1.089396,0,0,1.089396,18.000226,-27.867748)"
       id="text876-4"
       style="font-style:normal;font-weight:normal;font-size:10.58333302px;line-height:1.25;font-family:sans-serif;letter-spacing:0px;word-spacing:0px;display:inline;fill:#ffffff;fill-opacity:1;stroke:none;stroke-width:0.26458332"
       aria-label="$">
      <path
         id="path880-6"
         style="font-size:8.46666622px;fill:#ffffff;fill-opacity:1;stroke-width:0.26458332"
         d="m -8.9143321,293.58639 q -1.7611329,-0.0744 -2.0505209,-1.48415 l 0.7028,-0.15296 q 0.103353,0.49196 0.4299476,0.74 0.3307291,0.24805 0.9177733,0.28526 v -2.05052 q -0.7317382,-0.18191 -1.012858,-0.3266 -0.2769859,-0.14469 -0.4506189,-0.33073 -0.169498,-0.19017 -0.248046,-0.40514 -0.07441,-0.21498 -0.07441,-0.51677 0,-0.64078 0.46302,-1.00045 0.4671553,-0.3638 1.3229169,-0.40101 v -0.54157 h 0.5126302 v 0.54157 q 0.7730794,0.0372 1.1947591,0.3514 0.4216796,0.31006 0.5953124,0.97152 l -0.7193359,0.13642 q -0.082682,-0.38861 -0.3348632,-0.60358 -0.252181,-0.21911 -0.7358724,-0.26458 v 1.83968 q 0.7400065,0.17363 1.0500651,0.31833 0.3141927,0.14469 0.4960937,0.32659 0.181901,0.1819 0.2769857,0.42995 0.095085,0.24804 0.095085,0.58291 0,0.68213 -0.5002278,1.09554 -0.5002279,0.41341 -1.4180013,0.45889 v 0.66972 h -0.5126302 z m 1.7197916,-1.54616 q 0,-0.26872 -0.107487,-0.44235 -0.1074869,-0.17364 -0.3100585,-0.28526 -0.2025716,-0.11575 -0.7896159,-0.26872 v 1.93477 q 0.5829101,-0.0372 0.8929687,-0.27699 0.3141927,-0.23977 0.3141927,-0.66145 z m -2.7946613,-2.70371 q 0,0.24391 0.1033529,0.41341 0.1033528,0.1695 0.3059244,0.28525 0.2067057,0.11576 0.6655924,0.23151 v -1.74046 q -1.0748697,0.0579 -1.0748697,0.81029 z" />
    </g>
  </g>
</svg>
